<?xml version="1.0" encoding="utf-8"?>
<!-- Mitja Jež <mitja AT jež.si>
Date:25.jul.2011
Version: 2.0.3 -->
<!DOCTYPE svg PUBLIC "-//W3C//DTD SVG 1.1//EN" "http://www.w3.org/Graphics/SVG/1.1/DTD/svg11.dtd">

<svg width="100%" height="100%" version="1.1" xmlns="http://www.w3.org/2000/svg" xmlns:xlink="http://www.w3.org/1999/xlink">
<defs>
<g id="r"><!-- resistor -->
<line x1="0" y1="-40" x2="0" y2="-25" stroke-linecap="round" class="line"/>
<line x1="0" y1="25" x2="0" y2="40" stroke-linecap="round" class="line"/>
<rect x="-10" y="-25" rx="3" ry="3" width="20" height="50" class="border"/>
</g>
<symbol id="sym-r" viewBox="-20 -50 40 100"><!-- resistor -->
  <use xlink:href="#r" />
</symbol>

<g id="l"><!-- inductor -->
<line x1="0" y1="-40" x2="0" y2="-30" class="line" />
<line x1="0" y1="30" x2="0" y2="40" class="line"/>
<path d="M0,-30 a5,5 90 0,1 0,20 a5,5 90 0,1 0,20 a5,5 90 0,1 0,20" class="border"/>
</g>
<symbol id="sym-l" viewBox="-20 -50 40 100"><!-- inductor -->
  <use xlink:href="#l" />
</symbol>

<g id="c"><!-- capacitor -->
<line x1="0" y1="-20" x2="0" y2="-3" class="line"/>
<line x1="0" y1="3" x2="0" y2="20" class="line"/>
<line x1="-12" y1="-3" x2="12" y2="-3" class="line"/>
<line x1="-12" y1="3" x2="12" y2="3" class="line"/>
</g>
<symbol id="sym-c" viewBox="-22 -30 44 60"><!-- capacitor -->
  <use xlink:href="#c" />
</symbol>

<g id="v"><!-- voltage -->
<line x1="0" y1="-30" x2="0" y2="-20" class="line"/>
<line x1="0" y1="20" x2="0" y2="30" class="line"/>
<circle cx="0" cy="0" r="20" class="border"/>
<line x1="-3" y1="-10" x2="3" y2="-10" class="line"/>
<line x1="0" y1="-13" x2="0" y2="-7" class="line"/>
<line x1="-3" y1="10" x2="3" y2="10" class="line"/>
</g>
<symbol id="sym-v" viewBox="-30 -40 60 80"><!-- voltage -->
  <use xlink:href="#v" />
</symbol>

<g id="i"><!-- currnet -->
<line x1="0" y1="-30" x2="0" y2="-20" class="line"/>
<line x1="0" y1="20" x2="0" y2="30" class="line"/>
<circle cx="0" cy="0" r="20" class="border"/>
<line x1="0" y1="-10" x2="0" y2="10" class="line"/>
<path d="M0 -10 L-5 0 H5 Z" class="fill"/>
</g>
<symbol id="sym-i" viewBox="-30 -40 60 80"><!-- currnet -->
  <use xlink:href="#i" />
</symbol>

<g id="d"><!-- rectifier -->
<line x1="0" y1="-30" x2="0" y2="30" class="line"/>
<line x1="-10" y1="-10" x2="10" y2="-10" class="line"/>
<path d="M0 -10 L-10 10 H10 Z" class="fill" />
</g>
<symbol id="sym-d" viewBox="-20 -40 40 80"><!-- rectifier -->
  <use xlink:href="#d" />
</symbol>

<g id="zener">
<line x1="0" y1="-40" x2="0" y2="-20" class="line"/>
<line x1="0" y1="20" x2="0" y2="40" class="line"/>
<line x1="-10" y1="-20" x2="10" y2="-20" class="line"/>
<line x1="-10" y1="20" x2="10" y2="-20" class="line"/>
<path d="M0 0 L-10 20 H10 Z" class="fill" />
</g>
<symbol id="sym-zener" viewBox="-30 -50 60 100">
  <use xlink:href="#zener" />
</symbol>

<g id="BJT-PNP">
<line x1="10" y1="-30" x2="10" y2="-15" class="line"/>
<line x1="10" y1="30" x2="10" y2="15" class="line"/>
<line x1="-30" y1="0" x2="-6" y2="0" class="line"/>
<line x1="-5" y1="-12" x2="-5" y2="12" class="line"/>
<line x1="-5" y1="-3" x2="10" y2="-15" class="line"/>
<line x1="-5" y1="3" x2="10" y2="15" class="line"/>
<path d="M0 -7 L5 -15 L9 -10 Z" class="fill"/>
<circle cx="3" cy="0" r="20" class="border"/>
</g>
<symbol id="sym-BJT-PNP" viewBox="-40 -40 80 80">
  <use xlink:href="#BJT-PNP" />
</symbol>

<g id="BJT-NPN">
<line x1="10" y1="-30" x2="10" y2="-15" class="line"/>
<line x1="10" y1="30" x2="10" y2="15" class="line"/>
<line x1="-30" y1="0" x2="-6" y2="0" class="line"/>
<line x1="-5" y1="-12" x2="-5" y2="12" class="line"/>
<line x1="-5" y1="-3" x2="10" y2="-15" class="line"/>
<line x1="-5" y1="3" x2="10" y2="15" class="line"/>
<path d="M8 14 L4 6 L0 11 Z" class="fill"/>
<circle cx="3" cy="0" r="20" class="border"/>
</g>
<symbol id="sym-BJT-NPN" viewBox="-40 -40 80 80">
  <use xlink:href="#BJT-NPN" />
</symbol>

<g id="JFET-P">
<line x1="10" y1="-30" x2="10" y2="-10" class="line"/>
<line x1="10" y1="30" x2="10" y2="10" class="line"/>
<line x1="-30" y1="-10" x2="-6" y2="-10" class="line"/>
<line x1="-5" y1="-14" x2="-5" y2="14" class="line"/>
<line x1="-5" y1="-10" x2="10" y2="-10" class="line"/>
<line x1="-5" y1="10" x2="10" y2="10" class="line"/>
<path d="M-15 -10 L-8 -13 V-7 Z" class="fill"/>
<circle cx="-1" cy="0" r="22" class="border"/>
</g>
<symbol id="sym-JFET-P" viewBox="-40 -40 80 80">
  <use xlink:href="#JFET-P" />
</symbol>

<g id="JFET-N">
<line x1="10" y1="-30" x2="10" y2="-10" class="line"/>
<line x1="10" y1="30" x2="10" y2="10" class="line"/>
<line x1="-30" y1="10" x2="-6" y2="10" class="line"/>
<line x1="-5" y1="-14" x2="-5" y2="14" class="line"/>
<line x1="-5" y1="-10" x2="10" y2="-10" class="line"/>
<line x1="-5" y1="10" x2="10" y2="10" class="line"/>
<path d="M-8 10 L-15 13 V7 Z" class="fill"/>
<circle cx="-1" cy="0" r="22" class="border"/>
</g>
<symbol id="sym-JFET-N" viewBox="-40 -40 80 80">
  <use xlink:href="#JFET-N" />
</symbol>

<g id="MOSFET-P-enh">
<line x1="10" y1="-30" x2="10" y2="0" class="line"/>
<line x1="10" y1="30" x2="10" y2="10" class="line"/>
<line x1="-30" y1="-10" x2="-9" y2="-10" class="line"/>
<line x1="-9" y1="-10" x2="-9" y2="10" class="line"/>
<line x1="-5" y1="-14" x2="-5" y2="-6" class="line"/>
<line x1="-5" y1="-4" x2="-5" y2="4" class="line"/>
<line x1="-5" y1="14" x2="-5" y2="6" class="line"/>
<line x1="-5" y1="-10" x2="10" y2="-10" class="line"/>
<line x1="-5" y1="10" x2="10" y2="10" class="line"/>
<line x1="-6" y1="0" x2="10" y2="0" class="line"/>
<path d="M6 0 L-1 3 V-3 Z" class="fill"/>
<circle cx="0" cy="0" r="20" class="border"/>
</g>
<symbol id="sym-MOSFET-P-enh" viewBox="-40 -40 80 80">
  <use xlink:href="#MOSFET-P-enh" />
</symbol>

<g id="MOSFET-N-enh">
<line x1="10" y1="-30" x2="10" y2="-10" class="line"/>
<line x1="10" y1="30" x2="10" y2="0" class="line"/>
<line x1="-30" y1="10" x2="-9" y2="10" class="line"/>
<line x1="-9" y1="-10" x2="-9" y2="10" class="line"/>
<line x1="-5" y1="-14" x2="-5" y2="-6" class="line"/>
<line x1="-5" y1="-4" x2="-5" y2="4" class="line"/>
<line x1="-5" y1="14" x2="-5" y2="6" class="line"/>
<line x1="-5" y1="-10" x2="10" y2="-10" class="line"/>
<line x1="-5" y1="10" x2="10" y2="10" class="line"/>
<line x1="-6" y1="0" x2="10" y2="0" class="line"/>
<path d="M-1 0 L6 3 V-3 Z" class="fill"/>
<circle cx="0" cy="0" r="20" class="border"/>
</g>
<symbol id="sym-MOSFET-N-enh" viewBox="-40 -40 80 80">
  <use xlink:href="#MOSFET-N-enh" />
</symbol>

<g id="MOSFET-P">
<line x1="10" y1="-30" x2="10" y2="-10" class="line"/>
<line x1="10" y1="30" x2="10" y2="10" class="line"/>
<line x1="-30" y1="0" x2="-15" y2="0" class="line"/>
<circle cx="-12" cy="0" r="2" class="border"/>
<line x1="-9" y1="-10" x2="-9" y2="10" class="line"/>
<line x1="-5" y1="-14" x2="-5" y2="14" class="line"/>
<line x1="-5" y1="-10" x2="10" y2="-10" class="line"/>
<line x1="-5" y1="10" x2="10" y2="10" class="line"/>
<circle cx="0" cy="0" r="20" class="border"/>
</g>
<symbol id="sym-MOSFET-P" viewBox="-40 -40 80 80">
  <use xlink:href="#MOSFET-P" />
</symbol>

<g id="MOSFET-N">
<line x1="10" y1="-30" x2="10" y2="-10" class="line"/>
<line x1="10" y1="30" x2="10" y2="10" class="line"/>
<line x1="-30" y1="0" x2="-9" y2="0" class="line"/>
<line x1="-9" y1="-10" x2="-9" y2="10" class="line"/>
<line x1="-5" y1="-14" x2="-5" y2="14" class="line"/>
<line x1="-5" y1="-10" x2="10" y2="-10" class="line"/>
<line x1="-5" y1="10" x2="10" y2="10" class="line"/>
<circle cx="0" cy="0" r="20" class="border"/>
</g>
<symbol id="sym-MOSFET-N" viewBox="-40 -40 80 80">
  <use xlink:href="#MOSFET-N" />
</symbol>

<g id="MOSFET-P-dep">
<line x1="10" y1="-30" x2="10" y2="0" class="line"/>
<line x1="10" y1="30" x2="10" y2="10" class="line"/>
<line x1="-30" y1="-10" x2="-9" y2="-10" class="line"/>
<line x1="-9" y1="-10" x2="-9" y2="10" class="line"/>
<line x1="-5" y1="-14" x2="-5" y2="14" class="line"/>
<line x1="-5" y1="-10" x2="10" y2="-10" class="line"/>
<line x1="-5" y1="10" x2="10" y2="10" class="line"/>
<line x1="-6" y1="0" x2="10" y2="0" class="line"/>
<path d="M6 0 L-1 3 V-3 Z" class="fill"/>
<circle cx="0" cy="0" r="20" class="border"/>
</g>
<symbol id="sym-MOSFET-P-dep" viewBox="-40 -40 80 80">
  <use xlink:href="#MOSFET-P-dep" />
</symbol>

<g id="MOSFET-N-dep">
<line x1="10" y1="-30" x2="10" y2="-10" class="line"/>
<line x1="10" y1="30" x2="10" y2="0" class="line"/>
<line x1="-30" y1="10" x2="-9" y2="10" class="line"/>
<line x1="-9" y1="-10" x2="-9" y2="10" class="line"/>
<line x1="-5" y1="-14" x2="-5" y2="14" class="line"/>
<line x1="-5" y1="-10" x2="10" y2="-10" class="line"/>
<line x1="-5" y1="10" x2="10" y2="10" class="line"/>
<line x1="-6" y1="0" x2="10" y2="0" class="line"/>
<path d="M-1 0 L6 3 V-3 Z" class="fill"/>
<circle cx="0" cy="0" r="20" class="border"/>
</g>
<symbol id="sym-MOSFET-N-dep" viewBox="-40 -40 80 80">
  <use xlink:href="#MOSFET-N-dep" />
</symbol>

<g id="ic_op_amp"><!-- operational amplifier -->
<line x1="25" y1="0" x2="40" y2="0" class="line"/>
<line x1="-25" y1="20" x2="-40" y2="20" class="line"/>
<line x1="-25" y1="-20" x2="-40" y2="-20" class="line"/>
<path d="M25 0 L-25 35 V-35 Z" class="border"/>
<line x1="-20" y1="20" x2="-14" y2="20" class="mark"/>
<line x1="-20" y1="-20" x2="-14" y2="-20" class="mark"/>
<line x1="-17" y1="17" x2="-17" y2="23" class="mark"/>
</g>
<symbol id="sym-ic_op_amp" viewBox="-50 -40 100 80">
  <use xlink:href="#ic_op_amp" />
</symbol>
</defs>
</svg>
